<mxfile host="app.diagrams.net" modified="2023-06-29T11:27:58.077Z" agent="Mozilla/5.0 (Windows NT 10.0; Win64; x64) AppleWebKit/537.36 (KHTML, like Gecko) Chrome/114.0.0.0 Safari/537.36" etag="8iFvruXCsJJWsoNukpJb" version="21.4.0" type="github">
  <diagram name="Page-1" id="mdynL-CRP7-OpscKuNEC">
    <mxGraphModel dx="1434" dy="804" grid="1" gridSize="10" guides="1" tooltips="1" connect="1" arrows="1" fold="1" page="1" pageScale="1" pageWidth="827" pageHeight="1169" math="0" shadow="0">
      <root>
        <mxCell id="0" />
        <mxCell id="1" parent="0" />
        <mxCell id="cLYrETTYxAWgvKN5HBz5-3" style="edgeStyle=orthogonalEdgeStyle;rounded=0;orthogonalLoop=1;jettySize=auto;html=1;exitX=1;exitY=0.5;exitDx=0;exitDy=0;entryX=0;entryY=0.5;entryDx=0;entryDy=0;" edge="1" parent="1" source="cLYrETTYxAWgvKN5HBz5-1" target="cLYrETTYxAWgvKN5HBz5-2">
          <mxGeometry relative="1" as="geometry" />
        </mxCell>
        <mxCell id="cLYrETTYxAWgvKN5HBz5-1" value="main.js&lt;br&gt;import { ipcMain }&lt;br&gt;ipcHandler = new IpcHandler(context)" style="rounded=0;whiteSpace=wrap;html=1;" vertex="1" parent="1">
          <mxGeometry x="10" y="140" width="240" height="90" as="geometry" />
        </mxCell>
        <mxCell id="cLYrETTYxAWgvKN5HBz5-8" style="edgeStyle=orthogonalEdgeStyle;rounded=0;orthogonalLoop=1;jettySize=auto;html=1;exitX=0.5;exitY=1;exitDx=0;exitDy=0;entryX=0.5;entryY=0;entryDx=0;entryDy=0;" edge="1" parent="1" source="cLYrETTYxAWgvKN5HBz5-2" target="cLYrETTYxAWgvKN5HBz5-4">
          <mxGeometry relative="1" as="geometry" />
        </mxCell>
        <mxCell id="cLYrETTYxAWgvKN5HBz5-2" value="lib/ipc-handler.js&lt;br&gt;this.ipc = ipcMain&lt;br&gt;&lt;br&gt;Register IPC event listeners" style="rounded=0;whiteSpace=wrap;html=1;" vertex="1" parent="1">
          <mxGeometry x="380" y="140" width="290" height="90" as="geometry" />
        </mxCell>
        <mxCell id="cLYrETTYxAWgvKN5HBz5-4" value="ipcMain.on" style="rounded=0;whiteSpace=wrap;html=1;" vertex="1" parent="1">
          <mxGeometry x="380" y="281" width="290" height="90" as="geometry" />
        </mxCell>
      </root>
    </mxGraphModel>
  </diagram>
</mxfile>
